<?xml version="1.0" encoding="UTF-8"?><svg id="_图层_2" xmlns="http://www.w3.org/2000/svg" xmlns:xlink="http://www.w3.org/1999/xlink" viewBox="0 0 685.39 269.95"><defs><style>.cls-1{fill:url(#_未命名的渐变_209);}.cls-2{fill:#d6ae54;}.cls-3{fill:#33a1d3;}.cls-4{fill:#040000;}.cls-5{fill:url(#_未命名的渐变_95);}.cls-6{fill:#f3b322;}.cls-7{fill:#2c6cb5;}</style><radialGradient id="_未命名的渐变_209" cx="147.48" cy="134.97" fx="147.48" fy="134.97" r="114.1" gradientUnits="userSpaceOnUse"><stop offset=".17" stop-color="#3bbcee"/><stop offset="1" stop-color="#4397cc"/></radialGradient><linearGradient id="_未命名的渐变_95" x1="0" y1="149.52" x2="294.97" y2="149.52" gradientUnits="userSpaceOnUse"><stop offset="0" stop-color="#2c6cb5"/><stop offset="1" stop-color="#f3b322"/></linearGradient></defs><g id="_02_BRAND_ASSETS"><path class="cls-3" d="M120.54,41.45c51.71-16.01,106.52,11.69,124.65,62.12-.39-1.48-.79-2.96-1.25-4.43-16.47-53.19-72.94-82.96-126.13-66.49-53.19,16.47-82.96,72.94-66.49,126.13.46,1.48.96,2.93,1.47,4.37-13.53-51.86,16.03-105.68,67.74-121.69Z"/><path class="cls-7" d="M176.12,223.47c-37.6,11.64-76.75,1.24-103.59-23.84,25.46,28.76,66.28,41.64,105.35,29.54,39.07-12.1,65.48-45.79,70.23-83.9-7.97,35.86-34.39,66.56-71.99,78.21Z"/><path class="cls-2" d="M39.44,175.75c.6.7,1.21,1.38,1.84,2.05h.02c-.63-.68-1.25-1.36-1.86-2.05Z"/><path class="cls-4" d="M370.5,106.36v.8c0,.9-.43,1.35-1.27,1.35h-20.46c-.9,0-1.35-.45-1.35-1.35v-.8c0-.9.45-1.35,1.35-1.35h20.46c.85,0,1.27.45,1.27,1.35ZM369.78,87.49v.8c0,.9-.43,1.35-1.27,1.35h-17.59c-.9,0-1.35-.45-1.35-1.35v-.8c0-.9.45-1.35,1.35-1.35h17.59c.85,0,1.27.45,1.27,1.35ZM353.86,65.75v5.25h15.45c.85,0,1.27.45,1.27,1.35v.8c0,.9-.43,1.35-1.27,1.35h-16.4c-1.7,0-2.55-.88-2.55-2.63v-6.13c0-.96.45-1.43,1.35-1.43h.8c.9,0,1.35.48,1.35,1.43ZM359.75,88.84v41.8h5.97c.9,0,1.35.48,1.35,1.43v.72c0,.96-.45,1.43-1.35,1.43h-6.93c-.85,0-1.5-.23-1.95-.68-.45-.45-.68-1.1-.68-1.95v-42.75c0-.9.48-1.35,1.43-1.35h.72c.96,0,1.43.45,1.43,1.35ZM417.67,108.27c.45.43.68,1.06.68,1.91v18.55c0,.8-.21,1.42-.64,1.87-.43.45-1.06.68-1.91.68h-5.25c-.9,0-1.35-.45-1.35-1.35v-.8c0-.85.45-1.27,1.35-1.27h4.3v-16.8h-36.62v19.27c0,.9-.45,1.35-1.35,1.35h-.8c-.9,0-1.35-.45-1.35-1.35v-20.14c0-.8.21-1.42.64-1.87.42-.45,1.06-.68,1.91-.68h38.53c.8,0,1.42.21,1.87.64ZM379.18,68.94h34.71c1.64,0,2.47.85,2.47,2.55v25.32c0,1.7-.82,2.55-2.47,2.55h-34.71c-1.65,0-2.47-.85-2.47-2.55v-25.32c0-1.7.82-2.55,2.47-2.55ZM414.6,83.83v.8c0,.85-.4,1.27-1.19,1.27h-33.76c-.8,0-1.19-.42-1.19-1.27v-.8c0-.85.4-1.27,1.19-1.27h33.76c.8,0,1.19.43,1.19,1.27ZM412.85,72.28h-32.64v23.73h32.64v-23.73ZM398.28,64.4v4.86c0,.9-.43,1.35-1.27,1.35h-.96c-.85,0-1.27-.45-1.27-1.35v-4.86c0-.9.42-1.35,1.27-1.35h.96c.85,0,1.27.45,1.27,1.35ZM398.28,99.11v34.63c0,.96-.48,1.43-1.43,1.43h-.64c-.96,0-1.43-.48-1.43-1.43v-34.63c0-.96.48-1.43,1.43-1.43h.64c.96,0,1.43.48,1.43,1.43Z"/><path class="cls-4" d="M438.93,68.42c.4-.4,1-.6,1.79-.6h13.22c.8,0,1.39.2,1.79.6.4.4.6,1,.6,1.79v56.45c0,.74-.2,1.33-.6,1.75-.4.42-1,.64-1.79.64h-13.22c-.8,0-1.39-.21-1.79-.64-.4-.43-.6-1.01-.6-1.75v-56.45c0-.8.2-1.39.6-1.79ZM454.73,96.96v.72c0,.96-.45,1.43-1.35,1.43h-12.1c-.9,0-1.35-.48-1.35-1.43v-.72c0-.96.45-1.43,1.35-1.43h12.1c.9,0,1.35.48,1.35,1.43ZM453.14,71.33h-11.62v54.14h11.62v-54.14ZM471.93,93.3c-1.7,3.98-3.45,7.75-5.25,11.31-1.81,3.56-3.74,6.77-5.81,9.63-.48.8-1.06.96-1.75.48l-.64-.48c-.74-.48-.9-1.11-.48-1.91,4.14-5.94,7.75-12.69,10.83-20.22.27-.85.8-1.11,1.59-.8l.72.32c.8.32,1.06.88.8,1.67ZM482.67,67.34v21.58c0,.9-.45,1.35-1.35,1.35h-.64c-.9,0-1.35-.45-1.35-1.35v-20.7h-17.52c-.8,0-1.19-.4-1.19-1.19v-.8c0-.85.4-1.27,1.19-1.27h18.47c1.59,0,2.39.8,2.39,2.39ZM476.86,82.95v.72c.16.8-.16,1.27-.96,1.43l-13.77,2.55c-.8.11-1.25-.21-1.35-.96l-.08-.72c-.16-.8.16-1.25.96-1.35l13.77-2.55c.8-.16,1.27.13,1.43.88ZM474.55,76.9l.08.72c-.21.74-.72,1.06-1.51.96l-10.27-2.31c-.8-.16-1.09-.61-.88-1.35v-.8c.21-.74.69-1.03,1.43-.88l10.35,2.23c.74.16,1.01.64.8,1.43ZM467.47,106.91v26.51c0,.9-.45,1.35-1.35,1.35h-.8c-.85,0-1.27-.45-1.27-1.35v-26.51c0-.9.42-1.35,1.27-1.35h.8c.9,0,1.35.45,1.35,1.35ZM508.95,132.07v.64c0,.85-.4,1.27-1.19,1.27h-34.95c-.85,0-1.27-.43-1.27-1.27v-.64c0-.85.42-1.27,1.27-1.27h34.95c.8,0,1.19.42,1.19,1.27ZM508.55,97.44v.64c0,.85-.43,1.27-1.27,1.27h-34.08c-.85,0-1.27-.42-1.27-1.27v-.64c0-.85.42-1.27,1.27-1.27h34.08c.85,0,1.27.43,1.27,1.27ZM507.12,109.06v.64c0,.85-.43,1.27-1.27,1.27h-31.29c-.85,0-1.27-.42-1.27-1.27v-.64c0-.85.42-1.27,1.27-1.27h31.29c.85,0,1.27.42,1.27,1.27ZM507.12,120.45v.64c0,.85-.43,1.27-1.27,1.27h-31.29c-.85,0-1.27-.42-1.27-1.27v-.64c0-.85.42-1.27,1.27-1.27h31.29c.85,0,1.27.43,1.27,1.27ZM501.94,82.95v.72c.16.8-.16,1.27-.96,1.43l-13.77,2.55c-.74.11-1.19-.21-1.35-.96l-.08-.72c-.11-.8.21-1.25.96-1.35l13.77-2.55c.8-.16,1.27.13,1.43.88ZM507.83,67.34v21.58c0,.9-.45,1.35-1.35,1.35h-.64c-.9,0-1.35-.45-1.35-1.35v-20.7h-17.44c-.85,0-1.27-.4-1.27-1.19v-.8c0-.85.42-1.27,1.27-1.27h18.39c1.59,0,2.39.8,2.39,2.39ZM499.71,76.9v.72c-.21.74-.69,1.06-1.43.96l-10.35-2.31c-.74-.16-1.03-.61-.88-1.35v-.8c.21-.74.69-1.03,1.43-.88l10.35,2.23c.74.16,1.04.64.88,1.43ZM491.99,92.5v38.53c0,.9-.45,1.35-1.35,1.35h-.8c-.85,0-1.27-.45-1.27-1.35v-38.53c0-.9.42-1.35,1.27-1.35h.8c.9,0,1.35.45,1.35,1.35Z"/><path class="cls-4" d="M564.52,90.04v.72c0,.9-.45,1.35-1.35,1.35h-36.46c-.9,0-1.35-.45-1.35-1.35v-.72c0-.9.45-1.35,1.35-1.35h36.46c.9,0,1.35.45,1.35,1.35ZM563.64,70.85v.72c0,.9-.43,1.35-1.27,1.35h-34.79c-.9,0-1.35-.45-1.35-1.35v-.72c0-.9.45-1.35,1.35-1.35h34.79c.85,0,1.27.45,1.27,1.35ZM563.72,105.72v.72c0,.9-.45,1.35-1.35,1.35h-34.79c-.9,0-1.35-.45-1.35-1.35v-.72c0-.9.45-1.35,1.35-1.35h34.79c.9,0,1.35.45,1.35,1.35ZM533.71,114c-.85,5.31-1.96,10.75-3.34,16.32-.27.85-.82,1.17-1.67.96l-.72-.08c-.85-.27-1.14-.82-.88-1.67.69-2.71,1.31-5.41,1.87-8.12s1.02-5.33,1.39-7.88c.16-.9.66-1.27,1.51-1.12l.72.08c.9.16,1.27.66,1.11,1.51ZM536.02,78.49l1.91,10.35c.16.85-.21,1.35-1.11,1.51l-.8.08c-.85.11-1.35-.26-1.51-1.11l-1.91-10.35c-.16-.85.21-1.35,1.11-1.51h.72c.9-.16,1.43.19,1.59,1.03ZM547.4,91.71v40.05c0,.8-.23,1.42-.68,1.87-.45.45-1.07.68-1.87.68h-6.05c-.96,0-1.43-.48-1.43-1.43v-.72c0-.96.48-1.43,1.43-1.43h5.1v-39.01c0-.9.45-1.35,1.35-1.35h.8c.9,0,1.35.45,1.35,1.35ZM546.69,64.4l-.08,5.49c0,.9-.43,1.35-1.27,1.35l-.96-.08c-.85,0-1.27-.42-1.27-1.27l.08-5.49c0-.9.42-1.35,1.27-1.35l.96.08c.85,0,1.27.43,1.27,1.27ZM557.19,78.97l-1.91,10.35c-.16.85-.66,1.22-1.51,1.11l-.8-.08c-.9-.16-1.27-.66-1.11-1.51l1.91-10.35c.16-.85.69-1.19,1.59-1.03h.72c.9.16,1.27.66,1.11,1.51ZM559.82,113.52c.96,5.52,2.12,10.85,3.5,16,.05.48.01.84-.12,1.08-.13.24-.44.44-.92.6l-.64.08c-.9.21-1.49-.11-1.75-.96-1.33-5.31-2.47-10.72-3.42-16.24-.11-.9.27-1.43,1.11-1.59l.72-.08c.9-.16,1.41.21,1.51,1.12ZM593.58,65.51c.48-.11.86-.05,1.15.16.29.21.49.53.6.96l.08.8c.21.9-.16,1.43-1.11,1.59-4.78.9-10.38,1.35-16.8,1.35h-4.38v28.9c0,5.89-.41,11.53-1.23,16.92-.82,5.39-2.3,10.95-4.42,16.68-.21.9-.72,1.19-1.51.88l-.88-.16c-.8-.32-1.06-.93-.8-1.83,1.96-5.57,3.34-10.93,4.14-16.08.8-5.15,1.19-10.62,1.19-16.4v-29.94c0-1.7.85-2.55,2.55-2.55h5.33c6.16,0,11.52-.42,16.08-1.27ZM597.96,91.23v.8c0,.9-.48,1.35-1.43,1.35h-23.88c-.9,0-1.35-.45-1.35-1.35v-.8c0-.9.45-1.35,1.35-1.35h23.88c.96,0,1.43.45,1.43,1.35ZM591.27,92.98v40.76c0,.85-.43,1.27-1.27,1.27h-.88c-.85,0-1.27-.43-1.27-1.27v-40.76c0-.9.42-1.35,1.27-1.35h.88c.85,0,1.27.45,1.27,1.35Z"/><path class="cls-4" d="M680.76,82.07v.72c0,.85-.4,1.27-1.19,1.27h-53.02v17.28c0,6.53-.69,12.26-2.07,17.2-1.38,4.94-3.9,9.9-7.56,14.89-.58.74-1.19.88-1.83.4l-.8-.48c-.74-.58-.85-1.25-.32-1.99,3.45-4.67,5.82-9.29,7.13-13.85,1.3-4.56,1.95-9.95,1.95-16.16v-18.07c0-1.64.82-2.47,2.47-2.47h54.06c.8,0,1.19.42,1.19,1.27ZM685.06,71.33v7.48c0,.96-.48,1.43-1.43,1.43h-.64c-.96,0-1.43-.48-1.43-1.43v-6.69h-61.46v6.69c0,.96-.48,1.43-1.43,1.43h-.64c-.96,0-1.43-.48-1.43-1.43v-7.48c0-1.7.85-2.55,2.55-2.55h63.37c1.7,0,2.55.85,2.55,2.55ZM684.26,106.12v.8c0,.8-.4,1.19-1.19,1.19h-56.77c-.85,0-1.27-.4-1.27-1.19v-.8c0-.85.42-1.27,1.27-1.27h56.77c.8,0,1.19.43,1.19,1.27ZM677.89,93.78v.72c0,.85-.4,1.27-1.19,1.27h-42.43c-.85,0-1.27-.42-1.27-1.27v-.72c0-.8.42-1.19,1.27-1.19h42.43c.8,0,1.19.4,1.19,1.19ZM640.55,107.79v23.49h8.2c.9,0,1.35.42,1.35,1.27v.8c0,.85-.45,1.27-1.35,1.27h-9.24c-.8,0-1.41-.2-1.83-.6-.43-.4-.64-1.02-.64-1.87v-24.28c0-.9.45-1.35,1.35-1.35h.8c.9,0,1.35.43,1.35,1.27ZM652.65,64v5.17c0,.85-.45,1.27-1.35,1.27h-.88c-.96,0-1.43-.45-1.43-1.35v-5.02c0-.9.48-1.35,1.43-1.35h.88c.9,0,1.35.43,1.35,1.27ZM652.73,111.61c3.77,5.04,8.36,9.25,13.77,12.62,5.41,3.37,11.33,5.64,17.75,6.81.85.21,1.22.74,1.11,1.59l-.16.8c-.11.85-.61,1.22-1.51,1.11-7.06-1.38-13.53-3.93-19.43-7.64s-10.7-8.15-14.41-13.3c-.53-.74-.43-1.38.32-1.91l.64-.48c.74-.53,1.38-.4,1.91.4ZM682.99,114l.24.72c.32.74.08,1.3-.72,1.67l-13.22,5.17c-.74.32-1.3.08-1.67-.72l-.24-.8c-.32-.74-.08-1.27.72-1.59l13.22-5.17c.8-.32,1.35-.08,1.67.72Z"/><path class="cls-4" d="M380.86,205.7c-.18.3-.49.45-.93.45h-.3c-.4,0-.74-.12-1.01-.36-.28-.24-.5-.58-.66-1.01l-15.76-40.37h1.25l-15.82,40.37c-.12.44-.32.78-.6,1.01-.28.24-.64.36-1.08.36h-.18c-.48,0-.81-.15-.99-.45-.18-.3-.19-.69-.03-1.17l16.24-41.62c.24-.76.8-1.13,1.67-1.13h.24c.88,0,1.43.38,1.67,1.13l16.3,41.62c.16.48.15.87-.03,1.17Z"/><path class="cls-4" d="M394.53,162.14c.26-.24.59-.36.99-.36h.12c.44,0,.78.12,1.01.36.24.24.36.58.36,1.02v26.69c0,2.55.57,4.92,1.7,7.11,1.13,2.19,2.7,3.93,4.69,5.22,1.99,1.29,4.2,1.94,6.63,1.94s4.58-.65,6.57-1.94c1.99-1.29,3.55-3.04,4.69-5.22,1.13-2.19,1.7-4.56,1.7-7.11v-26.69c0-.44.13-.78.39-1.02.26-.24.59-.36.99-.36h.12c.44,0,.78.12,1.02.36.24.24.36.58.36,1.02v26.69c0,2.95-.72,5.72-2.15,8.33-1.43,2.61-3.36,4.7-5.79,6.27-2.43,1.57-5.08,2.36-7.94,2.36s-5.51-.79-7.94-2.36c-2.43-1.57-4.35-3.66-5.76-6.27-1.41-2.61-2.12-5.38-2.12-8.33v-26.69c0-.44.13-.78.39-1.02Z"/><path class="cls-4" d="M445.32,205.76c-.24.26-.58.39-1.01.39h-.12c-.4,0-.73-.13-.99-.39-.26-.26-.39-.59-.39-.99v-40.78c0-.72.19-1.26.57-1.64s.95-.57,1.7-.57h.6v42.99c0,.4-.12.73-.36.99ZM445.2,183.99h11.4c1.91,0,3.67-.45,5.28-1.34,1.61-.9,2.89-2.09,3.82-3.58.93-1.49,1.4-3.11,1.4-4.87s-.47-3.36-1.4-4.84c-.94-1.47-2.21-2.66-3.82-3.55s-3.37-1.34-5.28-1.34h-11.4v-2.69h11.4c2.39,0,4.6.58,6.63,1.73s3.66,2.69,4.9,4.6c1.23,1.91,1.85,3.94,1.85,6.09s-.62,4.18-1.85,6.09c-1.23,1.91-2.87,3.45-4.9,4.63-2.03,1.17-4.24,1.76-6.63,1.76h-11.4v-2.69ZM459.11,185.13l11.05,19.23c.32.52.4.95.24,1.28-.16.34-.52.51-1.07.51h-.3c-.4,0-.75-.1-1.04-.3-.3-.2-.55-.5-.75-.9l-11.23-19.82h3.11Z"/><path class="cls-4" d="M487.95,205.76c-.24.26-.58.39-1.01.39h-.12c-.4,0-.73-.13-.99-.39-.26-.26-.39-.59-.39-.99v-41.62c0-.44.13-.78.39-1.02.26-.24.59-.36.99-.36h.12c.44,0,.78.12,1.01.36.24.24.36.58.36,1.02v41.62c0,.4-.12.73-.36.99Z"/><path class="cls-4" d="M534.37,162.14c.26-.24.59-.36.99-.36h.06c.44,0,.78.12,1.02.36.24.24.36.58.36,1.02v41.56c0,.44-.11.79-.33,1.04-.22.26-.53.39-.93.39h-.24c-.4,0-.74-.08-1.01-.24-.28-.16-.52-.4-.72-.72l-25.44-38.22v37.8c0,.44-.12.78-.36,1.01-.24.24-.58.36-1.01.36h-.12c-.4,0-.73-.12-.99-.36-.26-.24-.39-.58-.39-1.01v-41.56c0-.44.12-.79.36-1.04s.58-.39,1.01-.39h.12c.4,0,.74.08,1.01.24.28.16.54.4.78.72l25.44,38.21v-37.8c0-.44.13-.78.39-1.02Z"/><path class="cls-7" d="M562.88,203.76c-3.5-2.03-6.29-4.8-8.36-8.3-2.07-3.5-3.11-7.32-3.11-11.46s1.03-7.9,3.11-11.4c2.07-3.5,4.86-6.29,8.36-8.36,3.5-2.07,7.3-3.1,11.41-3.1s7.9,1.04,11.4,3.1c3.5,2.07,6.29,4.86,8.36,8.36,2.07,3.5,3.11,7.3,3.11,11.4s-1.04,7.96-3.11,11.46c-2.07,3.5-4.86,6.27-8.36,8.3-3.5,2.03-7.31,3.05-11.4,3.05s-7.9-1.02-11.41-3.05ZM584.35,201.46c3.04-1.77,5.46-4.19,7.25-7.25,1.79-3.07,2.69-6.47,2.69-10.21s-.9-7.1-2.69-10.18c-1.79-3.08-4.21-5.52-7.25-7.31-3.05-1.79-6.4-2.69-10.06-2.69s-7.02.9-10.06,2.69c-3.04,1.79-5.46,4.23-7.25,7.31-1.79,3.09-2.69,6.48-2.69,10.18s.9,7.15,2.69,10.21c1.79,3.07,4.21,5.48,7.25,7.25,3.05,1.77,6.4,2.66,10.06,2.66s7.02-.89,10.06-2.66Z"/><path class="cls-4" d="M642.36,161.78h.06c.52,0,.89.15,1.1.45.22.3.23.71.03,1.22l-16.9,41.56c-.28.76-.86,1.13-1.73,1.13h-.06c-.88,0-1.45-.38-1.73-1.13l-16.9-41.56c-.2-.52-.19-.92.03-1.22.22-.3.57-.45,1.04-.45h.12c.8,0,1.35.4,1.67,1.19l15.82,39.05,15.76-39.05c.32-.8.88-1.19,1.67-1.19Z"/><path class="cls-4" d="M683.83,205.7c-.18.3-.49.45-.93.45h-.3c-.4,0-.74-.12-1.02-.36-.28-.24-.5-.58-.66-1.01l-15.76-40.37h1.25l-15.82,40.37c-.12.44-.32.78-.6,1.01-.28.24-.64.36-1.08.36h-.18c-.48,0-.81-.15-.99-.45-.18-.3-.19-.69-.03-1.17l16.24-41.62c.24-.76.8-1.13,1.67-1.13h.24c.88,0,1.43.38,1.67,1.13l16.3,41.62c.16.48.15.87-.03,1.17Z"/><polygon class="cls-6" points="367.41 206.14 358.24 206.14 362.82 193.13 367.41 206.14"/><polygon class="cls-6" points="670.38 206.14 661.21 206.14 665.8 193.13 670.38 206.14"/><path class="cls-1" d="M161.9,142.91c2.02-1.24,4.33-2.04,6.82-2.25l67.2-5.68-67.2-5.68c-2.5-.21-4.81-1.02-6.83-2.26l29.81-36.28-35.83,29.44c-.71-1.58-1.17-3.29-1.33-5.09L147.48,0l-7.06,115.1c-.15,1.81-.62,3.52-1.33,5.1l-35.59-27.44,29.17,34.53c-1.92,1.1-4.1,1.81-6.43,2.01l-67.2,5.68,67.2,5.68c2.5.21,4.81,1.02,6.83,2.26l-29.81,36.28,35.83-29.44c.71,1.58,1.17,3.29,1.33,5.09l7.06,115.1,7.06-115.1c.14-1.63.53-3.18,1.13-4.63l34.02,28.74-27.8-36.05Z"/><path class="cls-5" d="M36.56,204.08c-21.38,0-34.28-3.83-36.32-10.79-2.64-9.01,17.45-27.88,46.56-43.22.02.07.81,3.06.83,3.12-16.97,9.46-41.13,24.25-37.96,35.05,2.09,7.13,13.69,10.9,33.55,10.9,28.3,0,69.41-7.3,112.77-20.03,36.39-10.68,69.69-23.85,93.79-37.07,17.42-9.56,37.5-23.27,34.24-34.35-2.07-7.06-19.06-9.31-38.57-9.38-.07-.2-2.07-2.72.32-2.92,25.88-2.23,46.87,4.5,48.91,11.45,5.22,17.78-57.78,52.6-137.58,76.03-45.89,13.48-89.82,21.21-120.52,21.21h0Z"/></g></svg>